<?xml version="1.0" encoding="utf-8"?>
<!-- Generator: Adobe Illustrator 25.3.0, SVG Export Plug-In . SVG Version: 6.00 Build 0)  -->
<svg version="1.1" xmlns="http://www.w3.org/2000/svg" xmlns:xlink="http://www.w3.org/1999/xlink" x="0px" y="0px"
	 viewBox="0 0 1920 1080" style="enable-background:new 0 0 1920 1080;" xml:space="preserve">
<style type="text/css">
	.st0{fill:#B69CAF;}
	.st1{fill:#C9C1B2;}
	.st2{fill:#00E3F0;}
	.st3{fill:#F2F2F4;}
</style>
<g id="Capa_1">
	<path class="st0" d="M1814.3,646.4"/>
	<path class="st1" d="M1678,313.1c-38.6-158.7-179.5-279.2-351.6-298.8C1042.7,134,758.9,253.7,475.2,373.4
		c6.2,45.3,12.3,90.5,18.5,135.8l-0.1,0.1c0.1,0.3,0.1,0.7,0.1,1.1c0,1,0,1.9,0,2.9c0.4,0.7,0.6,1.4,0.6,2.3c0,0.4,0,0.8,0,1.2
		c0.6,1.2,0.7,2.6,0.3,3.9c0.8,1.2,1,2.6,0.8,4c0.6,0.9,0.8,2.1,0.7,3.2c0.5,0.7,0.8,1.6,0.9,2.5c272.3-116.5,544.6-233,816.9-349.5
		c25.5-4,62.3-4.6,98.8,14.5c72,37.5,114.2,136.1,104.9,247.5c-6.3,29.5-27,104.8-95.6,153.9c-94.5,67.6-241.4,58.4-357.8-30.2v160
		c17.6,10.7,192.6,113.6,379.4,36.2C1614.1,692.2,1723.7,500.8,1678,313.1z"/>
	<path class="st2" d="M1394.4,264.7l0.2-0.1c-0.1-0.5-0.1-0.9-0.1-1.4c-0.2-0.6-0.2-1.1-0.2-1.7c-0.2-0.5-0.2-1.1-0.2-1.7
		c-0.2-0.5-0.2-1-0.2-1.5c-0.1-0.4-0.2-0.7-0.3-1.1c-0.2-0.5-0.2-0.9-0.3-1.4c-0.3-0.7-0.5-1.4-0.5-2.2c-0.3-0.6-0.4-1.3-0.4-2
		c-0.2-0.5-0.3-1.1-0.3-1.7c-0.2-0.5-0.3-0.9-0.4-1.4c-0.2-0.5-0.3-1-0.4-1.6c-0.3-0.6-0.4-1.2-0.5-1.8c-0.2-0.4-0.3-0.8-0.4-1.2
		C1121.7,370,853.1,496,584.4,622.1c-25.3,4.9-62.1,6.8-99.2-11C412.1,576,367,479,373,367.3c5.4-29.7,23.8-105.7,91-157.2
		c92.4-70.9,239.6-66.9,358.5,17.5l-4.7-159.9c-18-10.2-195.9-106.8-380.3-22.8c-168.3,76.6-272.1,271.8-220.9,457.8
		C259.9,660,404.3,775.4,576.9,788.9c280-129.7,560.1-259.4,840.1-389.1C1409.5,354.8,1401.9,309.7,1394.4,264.7z"/>
	<g>
		<g>
			<path class="st3" d="M410.6,940.1v18c0,34.9-6.6,69.1-56.3,69.1c-26.9,0-53.6-10.5-53.6-64.4V857.5c0-48,23.5-62.6,54.7-62.6
				c49.2,0,55.1,36.9,55.1,62.3v21h-48.7v-26.7c0-9.2-0.5-14.6-6.4-14.6c-5.4,0-6.6,4.4-6.6,14.6v118.1c0,11.2,1.2,15.2,6.1,15.2
				c5.4,0,6.9-4.1,6.9-16.2v-28.5L410.6,940.1L410.6,940.1z"/>
			<path class="st3" d="M533.7,898.4v68.8c0,42.6-22.3,59.6-56.3,59.6c-33.3,0-54.4-16.9-54.4-59.6v-70.4c0-41,23.9-58.3,54.4-58.3
				C510.1,838.5,533.7,854,533.7,898.4z M471,892v79.6c0,9.2,2.2,13.6,7.3,13.6c6.1,0,7.3-5.7,7.3-13.6v-79.9
				c0-7.4-1.5-12.6-7.3-12.6C472.9,879.1,471,884.5,471,892z"/>
			<path class="st3" d="M549.4,901.7c0-44.4-0.3-56.5-0.5-60.6h45.3c0.9,4.4,1.2,9.5,1.5,13.1c6.6-10.8,16.4-15.9,28.1-15.9
				c17.6,0,23.3,9.2,26.7,16.6c6.9-9.2,16.6-16.6,31.4-16.6c26.7,0,34.2,23.7,34.2,48v137.1h-46.9V895.2c0-7.2-1.5-12.1-6.4-12.1
				c-4.6,0-6.9,3.4-6.9,12.8v127.6H609V894.4c0-9.2-2.4-11.5-6.4-11.5c-4.2,0-6.4,3.6-6.4,12.6v128h-46.8L549.4,901.7L549.4,901.7z"
				/>
			<path class="st3" d="M781,1011.5v68.5h-48V893.7c0-24.4-0.3-46.4-0.5-52.6h46.5c0.3,3.6,1.2,10.5,1.5,16.9
				c4.6-9.5,14.5-19.7,31.1-19.7c22.3,0,32.1,15.2,32.1,47v88.3c0,28.2-6.6,52.9-37.5,52.9C801,1026.7,787.6,1025.1,781,1011.5z
				 M795.4,967.9V896c0-8.2-2.2-13.1-6.9-13.1c-5.7,0-7.6,5.4-7.6,16.2v66.4c0,10.2,1.5,16.2,6.9,16.2
				C791.8,981.7,795.4,979.4,795.4,967.9z"/>
			<path class="st3" d="M970,959.7c0,35.2,0,53.1,0.5,63.9H924c-0.9-4.7-1.2-10.5-1.5-14.2c-8.5,12.8-18.8,17.2-31.1,17.2
				c-16.6,0-32.1-8.5-32.1-46V841.1h48v128.3c0,7.7,1.8,12.6,6.9,12.6c6.1,0,7.6-4.7,7.6-16.2V841.1h48L970,959.7L970,959.7z"/>
			<path class="st3" d="M997.7,987.9c11.8,8.2,29.1,14.9,47.2,14.9c26.9,0,42.6-15.9,42.6-39c0-21.3-10.8-33.6-38.4-45.4
				c-33.3-13.1-53.8-32.6-53.8-64.7c0-35.6,26.2-61.9,65.9-61.9c20.8,0,36,5.4,45.1,11.2l-7.3,24.1c-6.6-4.1-20.3-10.8-38.7-10.8
				c-27.9,0-38.4,18.7-38.4,34.2c0,21.3,12.4,31.8,40.5,44.1c34.5,14.9,51.9,33.6,51.9,67c0,35.2-23.3,65.7-71.3,65.7
				c-19.6,0-41.1-6.4-51.9-14.6L997.7,987.9z"/>
			<path class="st3" d="M1181.5,812.7v47h38.2v22.6h-38.2v88.3c0,20.3,5.1,31.8,19.9,31.8c6.9,0,12-1,15.4-2l1.2,22.3
				c-5.1,2.3-13.3,4.1-23.5,4.1c-12.4,0-22.3-4.4-28.7-12.6c-7.6-8.8-10.3-23.4-10.3-42.6v-89.4h-22.7v-22.6h22.7v-39.3
				L1181.5,812.7z"/>
			<path class="st3" d="M1382,940.4c0,60.6-37.5,87-72.9,87c-39.6,0-70.1-32.6-70.1-84.4c0-54.9,32.1-87,72.5-87
				C1353.6,856,1382,890.3,1382,940.4z M1266,942.2c0,35.9,18.4,62.9,44.4,62.9c25.4,0,44.4-26.7,44.4-63.7
				c0-27.7-12.4-62.9-43.8-62.9C1279.5,878.4,1266,910.9,1266,942.2z"/>
			<path class="st3" d="M1415.6,910.9c0-19.3-0.3-35.9-1.2-51.1h23.3l0.9,32.1h1.2c6.6-22,22.7-35.9,40.5-35.9c3,0,5.1,0.3,7.6,1
				v28.2c-2.7-0.7-5.4-1-9.1-1c-18.8,0-32.1,15.9-35.7,38.3c-0.5,4.1-1.2,8.8-1.2,13.9v87.3h-26.2L1415.6,910.9L1415.6,910.9z"/>
			<path class="st3" d="M1529.2,947.1c0.5,40.3,23.5,56.9,50.2,56.9c19.1,0,30.6-3.6,40.5-8.5l4.6,21.3
				c-9.3,4.7-25.4,10.2-48.7,10.2c-45.1,0-72-33.1-72-82.6c0-49.5,26-88.3,68.6-88.3c47.8,0,60.5,47,60.5,77.2
				c0,6.1-0.5,10.8-0.9,13.9L1529.2,947.1L1529.2,947.1z M1607.3,925.8c0.3-19-6.9-48.5-36.9-48.5c-26.9,0-38.7,27.7-40.9,48.5
				H1607.3z"/>
		</g>
	</g>
</g>
<g id="Capa_2">
</g>
</svg>
