<?xml version="1.0" encoding="utf-8"?>
<!-- Generator: Adobe Illustrator 25.3.0, SVG Export Plug-In . SVG Version: 6.00 Build 0)  -->
<svg version="1.1" id="Capa_1" xmlns="http://www.w3.org/2000/svg" xmlns:xlink="http://www.w3.org/1999/xlink" x="0px" y="0px"
	 viewBox="0 0 1920 1080" style="enable-background:new 0 0 1920 1080;" xml:space="preserve">
<style type="text/css">
	.st0{fill:#B69CAF;}
	.st1{fill:#C9C1B2;}
	.st2{fill:#00E3F0;}
	.st3{font-family:'MyriadPro-Regular';}
	.st4{font-size:107.0575px;}
</style>
<path class="st0" d="M1814.3,646.4"/>
<path class="st1" d="M1678,313.1c-38.6-158.7-179.5-279.2-351.6-298.8C1042.7,134,758.9,253.7,475.2,373.4
	c6.2,45.3,12.3,90.5,18.5,135.8l-0.1,0.1c0.1,0.3,0.1,0.7,0.1,1.1c0,1,0,1.9,0,2.9c0.4,0.7,0.6,1.4,0.6,2.3c0,0.4,0,0.8,0,1.2
	c0.6,1.2,0.7,2.6,0.3,3.9c0.8,1.2,1,2.6,0.8,4c0.6,0.9,0.8,2.1,0.7,3.2c0.5,0.7,0.8,1.6,0.9,2.5c272.3-116.5,544.6-233,816.9-349.5
	c25.5-4,62.3-4.6,98.8,14.5c72,37.5,114.2,136.1,104.9,247.5c-6.3,29.5-27,104.8-95.6,153.9c-94.5,67.6-241.4,58.4-357.8-30.2v160
	c17.6,10.7,192.6,113.6,379.4,36.2C1614.1,692.2,1723.7,500.8,1678,313.1z"/>
<path class="st2" d="M1394.4,264.7l0.2-0.1c-0.1-0.5-0.1-0.9-0.1-1.4c-0.2-0.6-0.2-1.1-0.2-1.7c-0.2-0.5-0.2-1.1-0.2-1.7
	c-0.2-0.5-0.2-1-0.2-1.5c-0.1-0.4-0.2-0.7-0.3-1.1c-0.2-0.5-0.2-0.9-0.3-1.4c-0.3-0.7-0.5-1.4-0.5-2.2c-0.3-0.6-0.4-1.3-0.4-2
	c-0.2-0.5-0.3-1.1-0.3-1.7c-0.2-0.5-0.3-0.9-0.4-1.4c-0.2-0.5-0.3-1-0.4-1.6c-0.3-0.6-0.4-1.2-0.5-1.8c-0.2-0.4-0.3-0.8-0.4-1.2
	c-268.7,126.1-537.3,252.1-806,378.2c-25.3,4.9-62.1,6.8-99.2-11C412.1,576,367,479,373,367.3c5.4-29.7,23.8-105.7,91-157.2
	c92.4-70.9,239.6-66.9,358.5,17.5l-4.7-159.9C799.8,57.5,621.9-39.1,437.5,44.9c-168.3,76.6-272.1,271.8-220.9,457.8
	c43.3,157.3,187.7,272.7,360.3,286.2c280-129.7,560.1-259.4,840.1-389.1C1409.5,354.8,1401.9,309.7,1394.4,264.7z"/>
<g>
	<g>
		<path d="M558.9,893.4v12.3c0,23.9-4.9,47.3-41.6,47.3c-19.9,0-39.6-7.2-39.6-44.1v-72.1c0-32.9,17.4-42.9,40.4-42.9
			c36.4,0,40.7,25.3,40.7,42.7v14.4h-36v-18.3c0-6.3-0.4-10-4.7-10c-4,0-4.9,3-4.9,10v80.9c0,7.7,0.9,10.4,4.5,10.4
			c4,0,5.1-2.8,5.1-11.1v-19.5L558.9,893.4L558.9,893.4z"/>
		<path d="M649.9,864.8v47.1c0,29.2-16.5,40.8-41.6,40.8c-24.6,0-40.2-11.6-40.2-40.8v-48.2c0-28.1,17.7-39.9,40.2-39.9
			C632.5,823.8,649.9,834.4,649.9,864.8z M603.6,860.4v54.5c0,6.3,1.6,9.3,5.4,9.3c4.5,0,5.4-3.9,5.4-9.3v-54.7
			c0-5.1-1.1-8.6-5.4-8.6C605,851.6,603.6,855.3,603.6,860.4z"/>
		<path d="M661.5,867.1c0-30.4-0.2-38.7-0.4-41.5h33.5c0.7,3,0.9,6.5,1.1,9c4.9-7.4,12.1-10.9,20.8-10.9c13,0,17.2,6.3,19.7,11.4
			c5.1-6.3,12.3-11.4,23.2-11.4c19.7,0,25.3,16.2,25.3,32.9v93.9H750v-87.9c0-4.9-1.1-8.3-4.7-8.3c-3.4,0-5.1,2.3-5.1,8.8v87.4
			h-34.6v-88.4c0-6.3-1.8-7.9-4.7-7.9c-3.1,0-4.7,2.5-4.7,8.6v87.7h-34.6L661.5,867.1L661.5,867.1z"/>
		<path d="M832.7,942.3v46.9h-35.5V861.6c0-16.7-0.2-31.8-0.4-36h34.4c0.2,2.5,0.9,7.2,1.1,11.6c3.4-6.5,10.7-13.5,23-13.5
			c16.5,0,23.7,10.4,23.7,32.2v60.5c0,19.3-4.9,36.2-27.7,36.2C847.5,952.7,837.6,951.6,832.7,942.3z M843.4,912.4v-49.2
			c0-5.6-1.6-9-5.1-9c-4.2,0-5.6,3.7-5.6,11.1v45.5c0,7,1.1,11.1,5.1,11.1C840.7,921.9,843.4,920.3,843.4,912.4z"/>
		<path d="M972.4,906.8c0,24.1,0,36.4,0.4,43.8h-34.4c-0.7-3.2-0.9-7.2-1.1-9.7c-6.3,8.8-13.9,11.8-23,11.8
			c-12.3,0-23.7-5.8-23.7-31.5v-95.6h35.5v87.9c0,5.3,1.3,8.6,5.1,8.6c4.5,0,5.6-3.2,5.6-11.1v-85.4h35.5L972.4,906.8L972.4,906.8z"
			/>
		<path d="M992.9,926.1c8.7,5.6,21.5,10.2,34.9,10.2c19.9,0,31.5-10.9,31.5-26.7c0-14.6-8-23-28.4-31.1c-24.6-9-39.8-22.3-39.8-44.3
			c0-24.4,19.4-42.4,48.7-42.4c15.4,0,26.6,3.7,33.3,7.7l-5.4,16.5c-4.9-2.8-15-7.4-28.6-7.4c-20.6,0-28.4,12.8-28.4,23.4
			c0,14.6,9.2,21.8,29.9,30.2c25.5,10.2,38.4,23,38.4,45.9c0,24.1-17.2,45-52.7,45c-14.5,0-30.4-4.4-38.4-10L992.9,926.1z"/>
		<path d="M1128.8,806.1v32.2h28.2v15.5h-28.2v60.5c0,13.9,3.8,21.8,14.7,21.8c5.1,0,8.9-0.7,11.4-1.4l0.9,15.3
			c-3.8,1.6-9.8,2.8-17.4,2.8c-9.2,0-16.5-3-21.2-8.6c-5.6-6-7.6-16-7.6-29.2v-61.2h-16.8v-15.5h16.8v-26.9L1128.8,806.1z"/>
		<path d="M1277,893.6c0,41.5-27.7,59.6-53.9,59.6c-29.3,0-51.8-22.3-51.8-57.8c0-37.6,23.7-59.6,53.6-59.6
			C1256,835.8,1277,859.3,1277,893.6z M1191.2,894.8c0,24.6,13.6,43.1,32.8,43.1c18.8,0,32.8-18.3,32.8-43.6
			c0-19-9.2-43.1-32.4-43.1C1201.2,851.1,1191.2,873.4,1191.2,894.8z"/>
		<path d="M1301.8,873.4c0-13.2-0.2-24.6-0.9-35h17.2l0.7,22h0.9c4.9-15.1,16.8-24.6,29.9-24.6c2.2,0,3.8,0.2,5.6,0.7v19.3
			c-2-0.5-4-0.7-6.7-0.7c-13.9,0-23.7,10.9-26.4,26.2c-0.4,2.8-0.9,6-0.9,9.5v59.8h-19.4L1301.8,873.4L1301.8,873.4z"/>
		<path d="M1385.8,898.2c0.4,27.6,17.4,39,37.1,39c14.1,0,22.6-2.5,29.9-5.8l3.4,14.6c-6.9,3.2-18.8,7-36,7
			c-33.3,0-53.2-22.7-53.2-56.6s19.2-60.5,50.7-60.5c35.3,0,44.7,32.2,44.7,52.9c0,4.2-0.4,7.4-0.7,9.5L1385.8,898.2L1385.8,898.2z
			 M1443.5,883.6c0.2-13-5.1-33.2-27.3-33.2c-19.9,0-28.6,19-30.2,33.2H1443.5z"/>
	</g>
</g>
<text transform="matrix(0.6598 0 0 1 477.3721 1051.8125)" class="st3 st4">Para cada necesidad una solucion..</text>
</svg>
