<?xml version="1.0" encoding="utf-8"?>
<!-- Generator: Adobe Illustrator 25.3.0, SVG Export Plug-In . SVG Version: 6.00 Build 0)  -->
<svg version="1.1" id="Capa_1" xmlns="http://www.w3.org/2000/svg" xmlns:xlink="http://www.w3.org/1999/xlink" x="0px" y="0px"
	 viewBox="0 0 1920 1080" style="enable-background:new 0 0 1920 1080;" xml:space="preserve">
<style type="text/css">
	.st0{fill:#B69CAF;}
	.st1{fill:#C9C1B2;}
	.st2{fill:#00E3F0;}
</style>
<path class="st1" d="M1515.96,412.55c-28.82-122.76-134.08-215.93-262.58-231.09c-211.91,92.59-423.82,185.18-635.72,277.77
	c4.61,35.01,9.21,70.03,13.82,105.04l-2.31,1.17c0.27,0.32,0.52,0.64,0.73,0.98c3.41,5.29,0.72,13.41-0.29,16.11
	c204.81-90.75,409.63-181.49,614.44-272.24c19.03-3.07,46.5-3.53,73.82,11.22c53.75,29.02,85.29,105.22,78.31,191.41
	c-4.72,22.82-20.13,81.03-71.4,119.04c-70.53,52.3-180.3,45.14-267.19-23.34v123.71c13.16,8.31,143.8,87.86,283.31,28.01
	C1468.22,705.73,1550.04,557.71,1515.96,412.55z"/>
<path class="st2" d="M424.48,559.17c32.32,121.64,140.19,210.91,269.06,221.36c209.15-100.29,418.29-200.59,627.44-300.88
	c-5.61-34.83-11.21-69.65-16.82-104.48l2.27-1.25c-0.28-0.31-0.53-0.62-0.76-0.95c-3.56-5.16-1.1-13.38-0.18-16.12
	c-202.11,98.19-404.21,196.39-606.32,294.58c-18.93,3.76-46.37,5.23-74.1-8.52c-54.55-27.04-88.26-102.05-83.76-188.44
	c4.06-22.98,17.8-81.72,67.96-121.59c69-54.85,178.91-51.71,267.72,13.55l-3.54-123.65c-13.39-7.83-146.24-82.55-283.97-17.63
	C463.8,264.39,386.26,415.34,424.48,559.17z"/>
<g>
	<g>
		<path d="M680.2,909.55v9.51c0,18.48-3.67,36.59-31.04,36.59c-14.85,0-29.54-5.56-29.54-34.08v-55.79
			c0-25.47,13.02-33.19,30.21-33.19c27.2,0,30.38,19.55,30.38,33.01v11.12h-26.87v-14.17c0-4.84-0.33-7.71-3.5-7.71
			c-3,0-3.67,2.33-3.67,7.71v62.6c0,5.92,0.67,8.07,3.34,8.07c3,0,3.84-2.15,3.84-8.61v-15.07H680.2z"/>
		<path d="M748.12,887.49v36.41c0,22.6-12.35,31.57-31.04,31.57c-18.36,0-30.04-8.97-30.04-31.57v-37.31
			c0-21.71,13.19-30.85,30.04-30.85C735.11,855.74,748.12,863.99,748.12,887.49z M713.58,884.08v42.15c0,4.84,1.17,7.18,4.01,7.18
			c3.34,0,4.01-3.05,4.01-7.18V883.9c0-3.95-0.83-6.64-4.01-6.64C714.58,877.27,713.58,880.14,713.58,884.08z"/>
		<path d="M756.8,889.29c0-23.5-0.17-29.96-0.33-32.11h25.04c0.5,2.33,0.67,5.02,0.83,7c3.67-5.74,9.01-8.43,15.52-8.43
			c9.68,0,12.85,4.84,14.69,8.79c3.84-4.84,9.18-8.79,17.36-8.79c14.69,0,18.86,12.56,18.86,25.47v72.65h-25.87v-67.99
			c0-3.77-0.83-6.46-3.51-6.46c-2.5,0-3.84,1.79-3.84,6.82v67.63h-25.87v-68.34c0-4.84-1.34-6.1-3.5-6.1c-2.34,0-3.5,1.97-3.5,6.64
			v67.81H756.8V889.29z"/>
		<path d="M884.64,947.4v36.24h-26.54v-98.66c0-12.92-0.17-24.58-0.33-27.8h25.7c0.17,1.97,0.67,5.56,0.83,8.97
			c2.5-5.02,8.01-10.4,17.19-10.4c12.35,0,17.69,8.07,17.69,24.93v46.82c0,14.89-3.67,27.98-20.7,27.98
			C895.66,955.48,888.32,954.58,884.64,947.4z M892.66,924.26v-38.03c0-4.31-1.17-7-3.84-7c-3.17,0-4.17,2.87-4.17,8.61v35.16
			c0,5.38,0.83,8.61,3.84,8.61C890.65,931.62,892.66,930.36,892.66,924.26z"/>
		<path d="M988.96,919.96c0,18.66,0,28.16,0.33,33.9h-25.7c-0.5-2.51-0.67-5.56-0.83-7.53c-4.67,6.82-10.35,9.15-17.19,9.15
			c-9.18,0-17.69-4.48-17.69-24.4v-73.91h26.54v67.99c0,4.13,1,6.64,3.84,6.64c3.34,0,4.17-2.51,4.17-8.61v-66.01h26.54V919.96z"/>
		<path d="M1004.31,934.85c6.51,4.31,16.02,7.89,26.04,7.89c14.85,0,23.53-8.43,23.53-20.63c0-11.3-6.01-17.76-21.2-24.04
			c-18.36-7-29.71-17.22-29.71-34.26c0-18.83,14.52-32.83,36.38-32.83c11.52,0,19.86,2.87,24.87,5.92l-4,12.74
			c-3.67-2.15-11.18-5.74-21.36-5.74c-15.36,0-21.2,9.87-21.2,18.12c0,11.3,6.84,16.86,22.36,23.32
			c19.03,7.89,28.71,17.76,28.71,35.52c0,18.66-12.85,34.8-39.39,34.8c-10.85,0-22.7-3.41-28.71-7.71L1004.31,934.85z"/>
		<path d="M1105.79,842.11v24.93h21.03v12.02h-21.03v46.82c0,10.76,2.84,16.86,11.02,16.86c3.84,0,6.68-0.54,8.51-1.08l0.67,11.84
			c-2.84,1.25-7.34,2.15-13.02,2.15c-6.84,0-12.35-2.33-15.86-6.64c-4.17-4.66-5.67-12.38-5.67-22.6v-47.36h-12.52v-12.02h12.52
			v-20.81L1105.79,842.11z"/>
		<path d="M1216.44,909.73c0,32.11-20.7,46.1-40.22,46.1c-21.86,0-38.72-17.22-38.72-44.67c0-29.06,17.69-46.1,40.06-46.1
			C1200.75,865.07,1216.44,883.19,1216.44,909.73z M1152.35,910.63c0,19.01,10.18,33.37,24.53,33.37
			c14.02,0,24.54-14.17,24.54-33.72c0-14.71-6.84-33.37-24.2-33.37S1152.35,894.13,1152.35,910.63z"/>
		<path d="M1234.97,894.13c0-10.22-0.17-19.01-0.67-27.09h12.85l0.5,17.04h0.67c3.67-11.66,12.52-19.01,22.36-19.01
			c1.67,0,2.84,0.18,4.17,0.54v14.89c-1.5-0.36-3-0.54-5.01-0.54c-10.35,0-17.69,8.43-19.69,20.27c-0.33,2.15-0.67,4.66-0.67,7.36
			v46.28h-14.52V894.13z"/>
		<path d="M1297.72,913.32c0.33,21.35,13.02,30.14,27.71,30.14c10.51,0,16.86-1.97,22.36-4.48l2.5,11.3
			c-5.17,2.51-14.02,5.38-26.87,5.38c-24.87,0-39.72-17.58-39.72-43.77s14.35-46.82,37.89-46.82c26.37,0,33.38,24.93,33.38,40.9
			c0,3.23-0.33,5.74-0.5,7.36H1297.72z M1340.78,902.02c0.17-10.04-3.84-25.65-20.36-25.65c-14.85,0-21.36,14.71-22.53,25.65
			H1340.78z"/>
	</g>
</g>
</svg>
